
<svg xmlns="http://www.w3.org/2000/svg" viewBox="0 0 24 24" fill="none" stroke="currentColor" stroke-width="2" stroke-linecap="round" stroke-linejoin="round" class="text-indigo-500">
  <path d="M9 11.2V14a5 5 0 0 0 5 5h1a5 5 0 0 0 5-5v-8a5 5 0 0 0-5-5h-1a5 5 0 0 0-5 5v.2"></path>
  <path d="M5 12.5A3.5 3.5 0 0 1 8.5 9H9V2.13C9 2.06 9 2 8.95 2a1 1 0 0 0-.84-.7 6 6 0 0 0-1.38-.3 6 6 0 0 0-6.25 8.2 1 1 0 0 0 .4.45 1 1 0 0 0 .5.16H5Z"></path>
  <path d="M13 2v7"></path>
  <path d="M13 14c-1.1 0-2 .9-2 2v6"></path>
</svg>
